<svg xmlns="http://www.w3.org/2000/svg" xmlns:xlink="http://www.w3.org/1999/xlink" xmlns:lucid="lucid" width="1760" height="1360"><g transform="translate(0 0)" lucid:page-tab-id="0_0"><path d="M400 760h160v120H400z" stroke="#000" stroke-width="2" fill="#fff"/><use xlink:href="#a" transform="matrix(1,0,0,1,399.99999999999994,760) translate(29.57999999999999 63.15)"/><use xlink:href="#b" transform="matrix(1,0,0,1,399.99999999999994,760) translate(77.53 63.15)"/><path d="M180 820c0 33.14-35.82 60-80 60s-80-26.86-80-60 35.82-60 80-60 80 26.86 80 60z" stroke="#000" stroke-width="2" fill="#ff8f80"/><use xlink:href="#c" transform="matrix(1,0,0,1,20,760) translate(57.08 63.15)"/><path d="M209.25 821H181v-2h28.25zm171.5 0h-10v-2h10zM181 821h-1.03l.03-1v-.38l-.03-.62H181zM395.76 820l-14.26 4.64v-9.28z"/><path d="M399 820l-18.5 6v-12zm-16.5 3.26l10.03-3.26-10.03-3.26z"/><use xlink:href="#d" transform="matrix(1,0,0,1,209.2500044413208,809.2) translate(0 14.4)"/><use xlink:href="#e" transform="matrix(1,0,0,1,209.2500044413208,809.2) translate(76.95 14.4)"/><use xlink:href="#f" transform="matrix(1,0,0,1,209.2500044413208,809.2) translate(130.55 14.4)"/><path d="M820 560h160v120H820z" stroke="#000" stroke-width="2" fill="#fff"/><use xlink:href="#g" transform="matrix(1,0,0,1,825,565) translate(7.125 47.8)"/><use xlink:href="#h" transform="matrix(1,0,0,1,825,565) translate(23.174999999999997 69.4)"/><path d="M1320 560h160v120h-160z" stroke="#000" stroke-width="2" fill="#fff"/><use xlink:href="#i" transform="matrix(1,0,0,1,1325,565) translate(30.625 47.8)"/><use xlink:href="#j" transform="matrix(1,0,0,1,1325,565) translate(39.099999999999994 69.4)"/><path d="M1481 620h27.76" stroke="#000" stroke-width="2" fill="none"/><path d="M1481 621h-1v-2h1zM1523.76 620l-14.26 4.64v-9.28z"/><path d="M1527 620l-18.5 6v-12zm-16.5 3.26l10.03-3.26-10.03-3.26z"/><path d="M1020 320h160v120h-160z" stroke="#000" stroke-width="2" fill="#fff"/><path d="M1036 320v120m128-120v120" stroke="#000" stroke-width="2" fill="none"/><use xlink:href="#k" transform="matrix(1,0,0,1,1045,325) translate(21.025 58.6)"/><use xlink:href="#l" transform="matrix(1,0,0,1,1045,325) translate(59.975 58.6)"/><path d="M1528 560h144v102c-24.05-17.03-39.02-17.03-48.1-17.03-14.4 0-33.55 17.03-47.95 17.03-8.93 0-24.05 0-47.95-17.03z" stroke="#000" stroke-width="2" fill="#fff"/><path d="M1536 569h144v102c-24.05-17.03-39.02-17.03-48.1-17.03-14.4 0-33.55 17.03-47.95 17.03-8.93 0-24.05 0-47.95-17.03z" stroke="#000" stroke-width="2" fill="#fff"/><path d="M1544 578h144v102c-24.05-17.03-39.02-17.03-48.1-17.03-14.4 0-33.55 17.03-47.95 17.03-8.93 0-24.05 0-47.95-17.03z" stroke="#000" stroke-width="2" fill="#fff"/><use xlink:href="#m" transform="matrix(1,0,0,1,1549,583) translate(3.049999999999997 41.1)"/><path d="M1540 787.94h160v120h-160z" stroke="#000" stroke-width="2" fill="#fff"/><use xlink:href="#n" transform="matrix(1,0,0,1,1545,792.9363098639242) translate(32.025 47.8)"/><use xlink:href="#o" transform="matrix(1,0,0,1,1545,792.9363098639242) translate(48.575 69.4)"/><path d="M1620 786.94V751.9h-12v-57.63" fill="none"/><path d="M1620 786.94V775.3m0-11.62V751.9h-11.5m-.5-11.1v-23.27m0-11.63v-11.63" stroke="#000" stroke-width="2" fill="none"/><path d="M1621 787.94h-2v-1h2zM1612.64 693.53h-9.28l4.64-14.26z"/><path d="M1614 694.53h-12l6-18.5zm-9.26-2h6.52L1608 682.5z"/><path d="M1340 787.94h160v120h-160z" stroke="#000" stroke-width="2" fill="#fff"/><use xlink:href="#p" transform="matrix(1,0,0,1,1345,792.9363098639242) translate(6.375 47.8)"/><use xlink:href="#q" transform="matrix(1,0,0,1,1345,792.9363098639242) translate(56.125 69.4)"/><path d="M1419.36 786.94V751.9H1608v-57.63" fill="none"/><path d="M1419.36 786.94v-10.42m0-10.42v-14.2h6.64m10.42 0h20.84m10.42 0h20.83m10.43 0h20.84m10.42 0h20.83m10.42 0h20.84m10.4 0h15.3v-5.54m0-10.42V715.1m0-10.4v-10.43" stroke="#000" stroke-width="2" fill="none"/><path d="M1420.36 787.94h-2v-1h2zM1612.64 693.53h-9.28l4.64-14.26z"/><path d="M1614 694.53h-12l6-18.5zm-9.26-2h6.52L1608 682.5z"/><path d="M480 759v-59.44" stroke="#000" stroke-width="2" fill="none"/><path d="M481 760h-2v-1h2zM484.64 698.83h-9.28l4.64-14.27z"/><path d="M486 699.83h-12l6-18.5zm-9.26-2h6.52L480 687.8z"/><path d="M480 540l80 70-80 70-80-70z" stroke="#000" stroke-width="2" fill="#fff"/><use xlink:href="#r" transform="matrix(1,0,0,1,399.99999999999994,540) translate(52.55500000000001 75.65)"/><path d="M561.52 610h128.74v10h110.5" stroke="#000" stroke-width="2" fill="none"/><path d="M561.52 611h-2.66l1.14-1-1.14-1h2.66zM815.76 620l-14.26 4.64v-9.28z"/><path d="M819 620l-18.5 6v-12zm-16.5 3.26l10.03-3.26-10.03-3.26z"/><use xlink:href="#s" transform="matrix(1,0,0,1,568.0047996466146,584.4000000000001) translate(0 14.4)"/><use xlink:href="#f" transform="matrix(1,0,0,1,568.0047996466146,584.4000000000001) translate(53.6 14.4)"/><path d="M331.8 611h-33.56v-2h33.55zm66.68 0h-25.74v-2h25.74z"/><path d="M400 610l1.14 1h-2.66v-2h2.66zM297.5 614.64L283.24 610l14.26-4.64z"/><path d="M298.5 616l-18.5-6 18.5-6zm-12.03-6l10.03 3.26v-6.52z"/><use xlink:href="#t" transform="matrix(1,0,0,1,331.79166666666634,599.2) translate(0 14.4)"/><use xlink:href="#u" transform="matrix(1,0,0,1,331.79166666666634,599.2) translate(12 14.4)"/><path d="M144 634c-13.25 0-24-10.75-24-24 0-10.6 6.5-19.55 16.58-22.83C136 556 176 550 192 562c8-18 48-12 48 6 24-6 48 18 32 48 16 24 0 54-32 42-8 15.6-40 15.6-48 0-16 12-48 6-48-24z" stroke="#000" stroke-width="2" fill="#fff"/><use xlink:href="#v" transform="matrix(1,0,0,1,125,555) translate(60.5 58.6)"/><path d="M480 538.67v-53.9h-40v-35.65" stroke="#000" stroke-width="2" fill="none"/><path d="M481 540.88l-1-.88-1 .88v-2.2h2zM444.64 448.4h-9.28L440 434.1z"/><path d="M446 449.4h-12l6-18.52zm-9.26-2h6.52L440 437.35z"/><use xlink:href="#w" transform="matrix(1,0,0,1,425.4,507.2884850900811) translate(0 14.4)"/><use xlink:href="#x" transform="matrix(1,0,0,1,425.4,507.2884850900811) translate(41.6 14.4)"/><path d="M360 320h160v120c-26.72-20.04-43.36-20.04-53.44-20.04-16 0-37.28 20.04-53.28 20.04-9.92 0-26.72 0-53.28-20.04z" stroke="#000" stroke-width="2" fill="#fff"/><use xlink:href="#y" transform="matrix(1,0,0,1,365,325) translate(34.074999999999996 48.6)"/><path d="M708 340c17.67 0 32 17.9 32 40s-14.33 40-32 40h-96c-17.67 0-32-17.9-32-40s14.33-40 32-40z" stroke="#000" stroke-width="2" fill="#fff"/><use xlink:href="#z" transform="matrix(1,0,0,1,585,345) translate(60 38.6)"/><path d="M535.03 498.32h-14.07v75.32h-2v-77.32h16.07zm125.97 0h-16.07v-2H659v-57.08h2z"/><path d="M520.96 575.84l-2-1.75v-.46h2zM664.64 438.5h-9.28l4.64-14.26z"/><path d="M666 439.5h-12l6-18.5zm-9.26-2h6.52L660 427.47z"/><use xlink:href="#A" transform="matrix(1,0,0,1,535.0323495929205,486.52017189380547) translate(0 14.4)"/><use xlink:href="#B" transform="matrix(1,0,0,1,535.0323495929205,486.52017189380547) translate(74.95 14.4)"/><path d="M1020 560h160v120h-160z" stroke="#000" stroke-width="2" fill="#fff"/><use xlink:href="#C" transform="matrix(1,0,0,1,1025,565) translate(45.074999999999996 47.8)"/><use xlink:href="#D" transform="matrix(1,0,0,1,1025,565) translate(45.099999999999994 69.4)"/><path d="M1101 760.76h-2v-8.86h2zm0-17.72h-2v-4.7h2zm0-53.18h-2V681h2zM1101 681h-2v-1h2zM1100 775.76l-4.64-14.26h9.28z"/><path d="M1100 779l-6-18.5h12zm-3.26-16.5l3.26 10.03 3.26-10.03z"/><use xlink:href="#E" transform="matrix(1,0,0,1,1026.825,695.1344927536236) translate(0 14.4)"/><use xlink:href="#F" transform="matrix(1,0,0,1,1026.825,695.1344927536236) translate(37.95 14.4)"/><use xlink:href="#G" transform="matrix(1,0,0,1,1026.825,695.1344927536236) translate(0 36)"/><use xlink:href="#H" transform="matrix(1,0,0,1,1026.825,695.1344927536236) translate(52.45 36)"/><use xlink:href="#I" transform="matrix(1,0,0,1,1026.825,695.1344927536236) translate(100.4 36)"/><path d="M990 780h220v140c-36.74-23.38-59.62-23.38-73.48-23.38-22 0-51.26 23.38-73.26 23.38-13.64 0-36.74 0-73.26-23.38z" stroke="#000" stroke-width="2" fill="#a3d977"/><use xlink:href="#J" transform="matrix(1,0,0,1,995,785) translate(34.625 46.3)"/><use xlink:href="#K" transform="matrix(1,0,0,1,995,785) translate(8.224999999999994 67.9)"/><use xlink:href="#L" transform="matrix(1,0,0,1,995,785) translate(66.07499999999999 67.9)"/><use xlink:href="#M" transform="matrix(1,0,0,1,995,785) translate(86.07499999999999 67.9)"/><use xlink:href="#N" transform="matrix(1,0,0,1,995,785) translate(150.92499999999998 67.9)"/><path d="M1100 441v99.76" stroke="#000" stroke-width="2" fill="none"/><path d="M1101 441h-2v-1h2zM1100 555.76l-4.64-14.26h9.28z"/><path d="M1100 559l-6-18.5h12zm-3.26-16.5l3.26 10.03 3.26-10.03z"/><path d="M1181 620h119.76" stroke="#000" stroke-width="2" fill="none"/><path d="M1181 621h-1v-2h1zM1315.76 620l-14.26 4.64v-9.28z"/><path d="M1319 620l-18.5 6v-12zm-16.5 3.26l10.03-3.26-10.03-3.26z"/><use xlink:href="#O" transform="matrix(1,0,0,1,1180.9764044943825,594.4) translate(0 14.4)"/><path d="M1319 620h-119.76" stroke="#000" stroke-width="2" fill="none"/><path d="M1320 621h-1v-2h1zM1198.5 624.64l-14.26-4.64 14.26-4.64z"/><path d="M1199.5 626l-18.5-6 18.5-6zm-12.03-6l10.03 3.26v-6.52z"/><use xlink:href="#P" transform="matrix(1,0,0,1,1225.0151685393264,624) translate(0 14.4)"/><use xlink:href="#Q" transform="matrix(1,0,0,1,1225.0151685393264,624) translate(0 36)"/><use xlink:href="#R" transform="matrix(1,0,0,1,1225.0151685393264,624) translate(51.95 36)"/><path d="M901 849h69.76v2H899v-71.6h2zm0-134.4h-2V681h2zM901 681h-2v-1h2zM985.76 850l-14.26 4.64v-9.28z"/><path d="M989 850l-18.5 6v-12zm-16.5 3.26l10.03-3.26-10.03-3.26z"/><use xlink:href="#S" transform="matrix(1,0,0,1,781.65,714.6080645161294) translate(72.88 14.4)"/><use xlink:href="#T" transform="matrix(1,0,0,1,781.65,714.6080645161294) translate(120.83 14.4)"/><use xlink:href="#U" transform="matrix(1,0,0,1,781.65,714.6080645161294) translate(0.0049999999999954525 36)"/><use xlink:href="#V" transform="matrix(1,0,0,1,781.65,714.6080645161294) translate(46.955 36)"/><use xlink:href="#W" transform="matrix(1,0,0,1,781.65,714.6080645161294) translate(94.905 36)"/><use xlink:href="#X" transform="matrix(1,0,0,1,781.65,714.6080645161294) translate(144.85500000000002 36)"/><use xlink:href="#Y" transform="matrix(1,0,0,1,781.65,714.6080645161294) translate(178.805 36)"/><use xlink:href="#Z" transform="matrix(1,0,0,1,781.65,714.6080645161294) translate(44.480000000000004 57.6)"/><use xlink:href="#aa" transform="matrix(1,0,0,1,781.65,714.6080645161294) translate(118.33000000000001 57.6)"/><use xlink:href="#ab" transform="matrix(1,0,0,1,781.65,714.6080645161294) translate(138.33 57.6)"/><path d="M819 620H690.26v-10h-110.5" stroke="#000" stroke-width="2" fill="none"/><path d="M820 621h-1v-2h1zM579.02 614.64L564.75 610l14.27-4.64z"/><path d="M580.02 616l-18.5-6 18.5-6zM568 610l10.02 3.26v-6.52z"/><g><use xlink:href="#ac" transform="matrix(1,0,0,1,696.1673736603718,624) translate(15.030000000000001 14.4)"/><use xlink:href="#ad" transform="matrix(1,0,0,1,696.1673736603718,624) translate(65.93 14.4)"/><use xlink:href="#ae" transform="matrix(1,0,0,1,696.1673736603718,624) translate(0.005000000000002558 36)"/><use xlink:href="#af" transform="matrix(1,0,0,1,696.1673736603718,624) translate(52.955000000000005 36)"/></g><path d="M60 200h224l56 56v224H60z" stroke="#d9be60" stroke-width="2" fill="#ffdf71"/><path d="M284 200v56h56" fill="#d9be60"/><g><use xlink:href="#ag" transform="matrix(1,0,0,1,64.99999999999994,205) translate(8.265432098765416 66.55555555555554)"/><use xlink:href="#ah" transform="matrix(1,0,0,1,64.99999999999994,205) translate(82.32716049382715 66.55555555555554)"/><use xlink:href="#ai" transform="matrix(1,0,0,1,64.99999999999994,205) translate(116.89506172839506 66.55555555555554)"/><use xlink:href="#aj" transform="matrix(1,0,0,1,64.99999999999994,205) translate(225.5246913580247 66.55555555555554)"/><use xlink:href="#ak" transform="matrix(1,0,0,1,64.99999999999994,205) translate(26.32716049382715 103.88888888888889)"/><use xlink:href="#al" transform="matrix(1,0,0,1,64.99999999999994,205) translate(138.5 103.88888888888889)"/><use xlink:href="#am" transform="matrix(1,0,0,1,64.99999999999994,205) translate(106.52469135802468 141.22222222222223)"/><use xlink:href="#an" transform="matrix(1,0,0,1,64.99999999999994,205) translate(135 178.55555555555557)"/><use xlink:href="#ao" transform="matrix(1,0,0,1,64.99999999999994,205) translate(22.913580246913583 215.88888888888889)"/><use xlink:href="#ap" transform="matrix(1,0,0,1,64.99999999999994,205) translate(97.14814814814815 215.88888888888889)"/><use xlink:href="#aq" transform="matrix(1,0,0,1,64.99999999999994,205) translate(167.8395061728395 215.88888888888889)"/></g><path d="M820 320h160v120H820z" stroke="#000" stroke-width="2" fill="#fff"/><g><use xlink:href="#ar" transform="matrix(1,0,0,1,825,325) translate(17.099999999999994 58.6)"/></g><path d="M900 441v99.76" stroke="#000" stroke-width="2" fill="none"/><path d="M901 441h-2v-1h2zM900 555.76l-4.64-14.26h9.28z"/><path d="M900 559l-6-18.5h12zm-3.26-16.5l3.26 10.03 3.26-10.03z"/><g><use xlink:href="#P" transform="matrix(1,0,0,1,797.0999999999999,463.27674337112467) translate(49.010000000000005 14.4)"/><use xlink:href="#Q" transform="matrix(1,0,0,1,797.0999999999999,463.27674337112467) translate(0.010000000000005116 36)"/><use xlink:href="#R" transform="matrix(1,0,0,1,797.0999999999999,463.27674337112467) translate(51.96000000000001 36)"/></g><path d="M981 380h19.76" stroke="#000" stroke-width="2" fill="none"/><path d="M981 381h-1v-2h1zM1015.76 380l-14.26 4.64v-9.28z"/><path d="M1019 380l-18.5 6v-12zm-16.5 3.26l10.03-3.26-10.03-3.26zM101 920h121.13v2H99v-22.76h2zm380 2H357.88v-2H479v-39h2zM481 881h-2v-1h2zM104.64 898.5h-9.28l4.64-14.26z"/><path d="M106 899.5H94l6-18.5zm-9.26-2h6.52L100 887.47z"/><g><use xlink:href="#ac" transform="matrix(1,0,0,1,222.1250040618895,910.2000081237791) translate(0 14.4)"/><use xlink:href="#as" transform="matrix(1,0,0,1,222.1250040618895,910.2000081237791) translate(50.900000000000006 14.4)"/><use xlink:href="#at" transform="matrix(1,0,0,1,222.1250040618895,910.2000081237791) translate(87.80000000000001 14.4)"/></g><path d="M509.7 655.35v85.4" stroke="#000" stroke-width="2" fill="none"/><path d="M510.7 655.35h-2v-.46l2-1.76zM509.7 755.76l-4.64-14.26h9.27z"/><path d="M509.7 759l-6.02-18.5h12.03zm-3.26-16.5l3.25 10.03 3.25-10.03z"/><g><use xlink:href="#au" transform="matrix(1,0,0,1,517.6944926961652,696.3730434454278) translate(0 14.4)"/><use xlink:href="#av" transform="matrix(1,0,0,1,517.6944926961652,696.3730434454278) translate(85.95 14.4)"/></g><defs><path d="M190 0L58-211 59 0H30v-248h39L202-35l-2-213h31V0h-41" id="aw"/><path d="M100-194c62-1 85 37 85 99 1 63-27 99-86 99S16-35 15-95c0-66 28-99 85-99zM99-20c44 1 53-31 53-75 0-43-8-75-51-75s-53 32-53 75 10 74 51 75" id="ax"/><path d="M85-194c31 0 48 13 60 33l-1-100h32l1 261h-30c-2-10 0-23-3-31C134-8 116 4 85 4 32 4 16-35 15-94c0-66 23-100 70-100zm9 24c-40 0-46 34-46 75 0 40 6 74 45 74 42 0 51-32 51-76 0-42-9-74-50-73" id="ay"/><path d="M100-194c63 0 86 42 84 106H49c0 40 14 67 53 68 26 1 43-12 49-29l28 8c-11 28-37 45-77 45C44 4 14-33 15-96c1-61 26-98 85-98zm52 81c6-60-76-77-97-28-3 7-6 17-6 28h103" id="az"/><g id="a"><use transform="matrix(0.05,0,0,0.05,0,0)" xlink:href="#aw"/><use transform="matrix(0.05,0,0,0.05,12.950000000000001,0)" xlink:href="#ax"/><use transform="matrix(0.05,0,0,0.05,22.950000000000003,0)" xlink:href="#ay"/><use transform="matrix(0.05,0,0,0.05,32.95,0)" xlink:href="#az"/></g><path d="M185-189c-5-48-123-54-124 2 14 75 158 14 163 119 3 78-121 87-175 55-17-10-28-26-33-46l33-7c5 56 141 63 141-1 0-78-155-14-162-118-5-82 145-84 179-34 5 7 8 16 11 25" id="aA"/><path d="M114-163C36-179 61-72 57 0H25l-1-190h30c1 12-1 29 2 39 6-27 23-49 58-41v29" id="aB"/><path d="M108 0H70L1-190h34L89-25l56-165h34" id="aC"/><g id="b"><use transform="matrix(0.05,0,0,0.05,0,0)" xlink:href="#aA"/><use transform="matrix(0.05,0,0,0.05,12,0)" xlink:href="#az"/><use transform="matrix(0.05,0,0,0.05,22,0)" xlink:href="#aB"/><use transform="matrix(0.05,0,0,0.05,27.950000000000003,0)" xlink:href="#aC"/><use transform="matrix(0.05,0,0,0.05,36.95,0)" xlink:href="#az"/><use transform="matrix(0.05,0,0,0.05,46.95,0)" xlink:href="#aB"/></g><path d="M212-179c-10-28-35-45-73-45-59 0-87 40-87 99 0 60 29 101 89 101 43 0 62-24 78-52l27 14C228-24 195 4 139 4 59 4 22-46 18-125c-6-104 99-153 187-111 19 9 31 26 39 46" id="aD"/><path d="M24 0v-261h32V0H24" id="aE"/><path d="M24-231v-30h32v30H24zM24 0v-190h32V0H24" id="aF"/><path d="M117-194c89-4 53 116 60 194h-32v-121c0-31-8-49-39-48C34-167 62-67 57 0H25l-1-190h30c1 10-1 24 2 32 11-22 29-35 61-36" id="aG"/><path d="M59-47c-2 24 18 29 38 22v24C64 9 27 4 27-40v-127H5v-23h24l9-43h21v43h35v23H59v120" id="aH"/><g id="c"><use transform="matrix(0.05,0,0,0.05,0,0)" xlink:href="#aD"/><use transform="matrix(0.05,0,0,0.05,12.950000000000001,0)" xlink:href="#aE"/><use transform="matrix(0.05,0,0,0.05,16.900000000000002,0)" xlink:href="#aF"/><use transform="matrix(0.05,0,0,0.05,20.85,0)" xlink:href="#az"/><use transform="matrix(0.05,0,0,0.05,30.85,0)" xlink:href="#aG"/><use transform="matrix(0.05,0,0,0.05,40.85,0)" xlink:href="#aH"/></g><path d="M233-177c-1 41-23 64-60 70L243 0h-38l-65-103H63V0H30v-248c88 3 205-21 203 71zM63-129c60-2 137 13 137-47 0-61-80-42-137-45v92" id="aI"/><path d="M145-31C134-9 116 4 85 4 32 4 16-35 15-94c0-59 17-99 70-100 32-1 48 14 60 33 0-11-1-24 2-32h30l-1 268h-32zM93-21c41 0 51-33 51-76s-8-73-50-73c-40 0-46 35-46 75s5 74 45 74" id="aJ"/><path d="M84 4C-5 8 30-112 23-190h32v120c0 31 7 50 39 49 72-2 45-101 50-169h31l1 190h-30c-1-10 1-25-2-33-11 22-28 36-60 37" id="aK"/><path d="M135-143c-3-34-86-38-87 0 15 53 115 12 119 90S17 21 10-45l28-5c4 36 97 45 98 0-10-56-113-15-118-90-4-57 82-63 122-42 12 7 21 19 24 35" id="aL"/><path d="M33-154v-36h34v36H33zM33 0v-36h34V0H33" id="aM"/><g id="d"><use transform="matrix(0.05,0,0,0.05,0,0)" xlink:href="#aI"/><use transform="matrix(0.05,0,0,0.05,12.950000000000001,0)" xlink:href="#az"/><use transform="matrix(0.05,0,0,0.05,22.950000000000003,0)" xlink:href="#aJ"/><use transform="matrix(0.05,0,0,0.05,32.95,0)" xlink:href="#aK"/><use transform="matrix(0.05,0,0,0.05,42.95,0)" xlink:href="#az"/><use transform="matrix(0.05,0,0,0.05,52.95,0)" xlink:href="#aL"/><use transform="matrix(0.05,0,0,0.05,61.95,0)" xlink:href="#aH"/><use transform="matrix(0.05,0,0,0.05,66.95,0)" xlink:href="#aM"/></g><path d="M30-248c87 1 191-15 191 75 0 78-77 80-158 76V0H30v-248zm33 125c57 0 124 11 124-50 0-59-68-47-124-48v98" id="aN"/><path d="M140-251c81 0 123 46 123 126C263-46 219 4 140 4 59 4 17-45 17-125s42-126 123-126zm0 227c63 0 89-41 89-101s-29-99-89-99c-61 0-89 39-89 99S79-25 140-24" id="aO"/><path d="M127-220V0H93v-220H8v-28h204v28h-85" id="aP"/><g id="e"><use transform="matrix(0.05,0,0,0.05,0,0)" xlink:href="#aN"/><use transform="matrix(0.05,0,0,0.05,12,0)" xlink:href="#aO"/><use transform="matrix(0.05,0,0,0.05,26,0)" xlink:href="#aA"/><use transform="matrix(0.05,0,0,0.05,38,0)" xlink:href="#aP"/></g><path d="M0 4l72-265h28L28 4H0" id="aQ"/><g id="f"><use transform="matrix(0.05,0,0,0.05,0,0)" xlink:href="#aQ"/><use transform="matrix(0.05,0,0,0.05,5,0)" xlink:href="#aB"/><use transform="matrix(0.05,0,0,0.05,10.95,0)" xlink:href="#aK"/><use transform="matrix(0.05,0,0,0.05,20.95,0)" xlink:href="#aG"/></g><path d="M63-220v92h138v28H63V0H30v-248h175v28H63" id="aR"/><path d="M177-190C167-65 218 103 67 71c-23-6-38-20-44-43l32-5c15 47 100 32 89-28v-30C133-14 115 1 83 1 29 1 15-40 15-95c0-56 16-97 71-98 29-1 48 16 59 35 1-10 0-23 2-32h30zM94-22c36 0 50-32 50-73 0-42-14-75-50-75-39 0-46 34-46 75s6 73 46 73" id="aS"/><g id="g"><use transform="matrix(0.05,0,0,0.05,0,0)" xlink:href="#aI"/><use transform="matrix(0.05,0,0,0.05,12.950000000000001,0)" xlink:href="#aK"/><use transform="matrix(0.05,0,0,0.05,22.950000000000003,0)" xlink:href="#aG"/><use transform="matrix(0.05,0,0,0.05,32.95,0)" xlink:href="#aR"/><use transform="matrix(0.05,0,0,0.05,43.900000000000006,0)" xlink:href="#ax"/><use transform="matrix(0.05,0,0,0.05,53.900000000000006,0)" xlink:href="#aB"/><use transform="matrix(0.05,0,0,0.05,59.85,0)" xlink:href="#az"/><use transform="matrix(0.05,0,0,0.05,69.85000000000001,0)" xlink:href="#aF"/><use transform="matrix(0.05,0,0,0.05,73.80000000000001,0)" xlink:href="#aS"/><use transform="matrix(0.05,0,0,0.05,83.80000000000001,0)" xlink:href="#aG"/><use transform="matrix(0.05,0,0,0.05,93.80000000000001,0)" xlink:href="#aP"/><use transform="matrix(0.05,0,0,0.05,102.75,0)" xlink:href="#az"/><use transform="matrix(0.05,0,0,0.05,112.75,0)" xlink:href="#aL"/><use transform="matrix(0.05,0,0,0.05,121.75,0)" xlink:href="#aH"/><use transform="matrix(0.05,0,0,0.05,126.75,0)" xlink:href="#aL"/></g><path d="M87 75C49 33 22-17 22-94c0-76 28-126 65-167h31c-38 41-64 92-64 168S80 34 118 75H87" id="aT"/><path d="M240 0l2-218c-23 76-54 145-80 218h-23L58-218 59 0H30v-248h44l77 211c21-75 51-140 76-211h43V0h-30" id="aU"/><path d="M206 0h-36l-40-164L89 0H53L-1-190h32L70-26l43-164h34l41 164 42-164h31" id="aV"/><path d="M141-36C126-15 110 5 73 4 37 3 15-17 15-53c-1-64 63-63 125-63 3-35-9-54-41-54-24 1-41 7-42 31l-33-3c5-37 33-52 76-52 45 0 72 20 72 64v82c-1 20 7 32 28 27v20c-31 9-61-2-59-35zM48-53c0 20 12 33 32 33 41-3 63-29 60-74-43 2-92-5-92 41" id="aW"/><path d="M33-261c38 41 65 92 65 168S71 34 33 75H2C39 34 66-17 66-93S39-220 2-261h31" id="aX"/><g id="h"><use transform="matrix(0.05,0,0,0.05,0,0)" xlink:href="#aT"/><use transform="matrix(0.05,0,0,0.05,5.95,0)" xlink:href="#aU"/><use transform="matrix(0.05,0,0,0.05,20.900000000000002,0)" xlink:href="#aF"/><use transform="matrix(0.05,0,0,0.05,24.85,0)" xlink:href="#ay"/><use transform="matrix(0.05,0,0,0.05,34.85,0)" xlink:href="#ay"/><use transform="matrix(0.05,0,0,0.05,44.85,0)" xlink:href="#aE"/><use transform="matrix(0.05,0,0,0.05,48.800000000000004,0)" xlink:href="#az"/><use transform="matrix(0.05,0,0,0.05,58.800000000000004,0)" xlink:href="#aV"/><use transform="matrix(0.05,0,0,0.05,71.75,0)" xlink:href="#aW"/><use transform="matrix(0.05,0,0,0.05,81.75,0)" xlink:href="#aB"/><use transform="matrix(0.05,0,0,0.05,87.7,0)" xlink:href="#az"/><use transform="matrix(0.05,0,0,0.05,97.7,0)" xlink:href="#aX"/></g><path d="M101-234c-31-9-42 10-38 44h38v23H63V0H32v-167H5v-23h27c-7-52 17-82 69-68v24" id="aY"/><path d="M33 0v-38h34V0H33" id="aZ"/><path d="M141 0L90-78 38 0H4l68-98-65-92h35l48 74 47-74h35l-64 92 68 98h-35" id="ba"/><path d="M210-169c-67 3-38 105-44 169h-31v-121c0-29-5-50-35-48C34-165 62-65 56 0H25l-1-190h30c1 10-1 24 2 32 10-44 99-50 107 0 11-21 27-35 58-36 85-2 47 119 55 194h-31v-121c0-29-5-49-35-48" id="bb"/><g id="i"><use transform="matrix(0.05,0,0,0.05,0,0)" xlink:href="#aY"/><use transform="matrix(0.05,0,0,0.05,5,0)" xlink:href="#aK"/><use transform="matrix(0.05,0,0,0.05,15,0)" xlink:href="#aE"/><use transform="matrix(0.05,0,0,0.05,18.95,0)" xlink:href="#aE"/><use transform="matrix(0.05,0,0,0.05,22.9,0)" xlink:href="#aP"/><use transform="matrix(0.05,0,0,0.05,31.85,0)" xlink:href="#az"/><use transform="matrix(0.05,0,0,0.05,41.85,0)" xlink:href="#aL"/><use transform="matrix(0.05,0,0,0.05,50.85,0)" xlink:href="#aH"/><use transform="matrix(0.05,0,0,0.05,55.85,0)" xlink:href="#aZ"/><use transform="matrix(0.05,0,0,0.05,60.85,0)" xlink:href="#ba"/><use transform="matrix(0.05,0,0,0.05,69.85,0)" xlink:href="#bb"/><use transform="matrix(0.05,0,0,0.05,84.8,0)" xlink:href="#aE"/></g><path d="M143 4C61 4 22-44 18-125c-5-107 100-154 193-111 17 8 29 25 37 43l-32 9c-13-25-37-40-76-40-61 0-88 39-88 99 0 61 29 100 91 101 35 0 62-11 79-27v-45h-74v-28h105v86C228-13 192 4 143 4" id="bc"/><g id="j"><use transform="matrix(0.05,0,0,0.05,0,0)" xlink:href="#aT"/><use transform="matrix(0.05,0,0,0.05,5.95,0)" xlink:href="#aP"/><use transform="matrix(0.05,0,0,0.05,14.9,0)" xlink:href="#az"/><use transform="matrix(0.05,0,0,0.05,24.900000000000002,0)" xlink:href="#aL"/><use transform="matrix(0.05,0,0,0.05,33.900000000000006,0)" xlink:href="#aH"/><use transform="matrix(0.05,0,0,0.05,38.900000000000006,0)" xlink:href="#aw"/><use transform="matrix(0.05,0,0,0.05,51.85,0)" xlink:href="#bc"/><use transform="matrix(0.05,0,0,0.05,65.85000000000001,0)" xlink:href="#aX"/></g><g id="k"><use transform="matrix(0.05,0,0,0.05,0,0)" xlink:href="#bb"/><use transform="matrix(0.05,0,0,0.05,14.950000000000001,0)" xlink:href="#aC"/><use transform="matrix(0.05,0,0,0.05,23.950000000000003,0)" xlink:href="#aG"/></g><g id="l"><use transform="matrix(0.05,0,0,0.05,0,0)" xlink:href="#aH"/><use transform="matrix(0.05,0,0,0.05,5,0)" xlink:href="#az"/><use transform="matrix(0.05,0,0,0.05,15,0)" xlink:href="#aL"/><use transform="matrix(0.05,0,0,0.05,24,0)" xlink:href="#aH"/></g><path d="M30 0v-248h33v221h125V0H30" id="bd"/><g id="m"><use transform="matrix(0.05,0,0,0.05,0,0)" xlink:href="#bd"/><use transform="matrix(0.05,0,0,0.05,10,0)" xlink:href="#ax"/><use transform="matrix(0.05,0,0,0.05,20,0)" xlink:href="#aS"/><use transform="matrix(0.05,0,0,0.05,30,0)" xlink:href="#aF"/><use transform="matrix(0.05,0,0,0.05,33.95,0)" xlink:href="#aG"/><use transform="matrix(0.05,0,0,0.05,43.95,0)" xlink:href="#aN"/><use transform="matrix(0.05,0,0,0.05,55.95,0)" xlink:href="#aW"/><use transform="matrix(0.05,0,0,0.05,65.95,0)" xlink:href="#aS"/><use transform="matrix(0.05,0,0,0.05,75.95,0)" xlink:href="#az"/><use transform="matrix(0.05,0,0,0.05,85.95,0)" xlink:href="#aP"/><use transform="matrix(0.05,0,0,0.05,94.9,0)" xlink:href="#az"/><use transform="matrix(0.05,0,0,0.05,104.9,0)" xlink:href="#aL"/><use transform="matrix(0.05,0,0,0.05,113.9,0)" xlink:href="#aH"/><use transform="matrix(0.05,0,0,0.05,118.9,0)" xlink:href="#aL"/></g><g id="n"><use transform="matrix(0.05,0,0,0.05,0,0)" xlink:href="#bd"/><use transform="matrix(0.05,0,0,0.05,10,0)" xlink:href="#ax"/><use transform="matrix(0.05,0,0,0.05,20,0)" xlink:href="#aS"/><use transform="matrix(0.05,0,0,0.05,30,0)" xlink:href="#aF"/><use transform="matrix(0.05,0,0,0.05,33.95,0)" xlink:href="#aG"/><use transform="matrix(0.05,0,0,0.05,43.95,0)" xlink:href="#aN"/><use transform="matrix(0.05,0,0,0.05,55.95,0)" xlink:href="#aW"/><use transform="matrix(0.05,0,0,0.05,65.95,0)" xlink:href="#aS"/><use transform="matrix(0.05,0,0,0.05,75.95,0)" xlink:href="#az"/></g><g id="o"><use transform="matrix(0.05,0,0,0.05,0,0)" xlink:href="#aT"/><use transform="matrix(0.05,0,0,0.05,5.95,0)" xlink:href="#aN"/><use transform="matrix(0.05,0,0,0.05,17.95,0)" xlink:href="#aO"/><use transform="matrix(0.05,0,0,0.05,31.950000000000003,0)" xlink:href="#aU"/><use transform="matrix(0.05,0,0,0.05,46.9,0)" xlink:href="#aX"/></g><path d="M266 0h-40l-56-210L115 0H75L2-248h35L96-30l15-64 43-154h32l59 218 59-218h35" id="be"/><path d="M115-194c53 0 69 39 70 98 0 66-23 100-70 100C84 3 66-7 56-30L54 0H23l1-261h32v101c10-23 28-34 59-34zm-8 174c40 0 45-34 45-75 0-40-5-75-45-74-42 0-51 32-51 76 0 43 10 73 51 73" id="bf"/><path d="M30-248c118-7 216 8 213 122C240-48 200 0 122 0H30v-248zM63-27c89 8 146-16 146-99s-60-101-146-95v194" id="bg"/><path d="M197 0v-115H63V0H30v-248h33v105h134v-105h34V0h-34" id="bh"/><path d="M115-194c55 1 70 41 70 98S169 2 115 4C84 4 66-9 55-30l1 105H24l-1-265h31l2 30c10-21 28-34 59-34zm-8 174c40 0 45-34 45-75s-6-73-45-74c-42 0-51 32-51 76 0 43 10 73 51 73" id="bi"/><g id="p"><use transform="matrix(0.05,0,0,0.05,0,0)" xlink:href="#be"/><use transform="matrix(0.05,0,0,0.05,16.599999999999998,0)" xlink:href="#az"/><use transform="matrix(0.05,0,0,0.05,26.599999999999994,0)" xlink:href="#bf"/><use transform="matrix(0.05,0,0,0.05,36.599999999999994,0)" xlink:href="#bg"/><use transform="matrix(0.05,0,0,0.05,49.55,0)" xlink:href="#aB"/><use transform="matrix(0.05,0,0,0.05,55.5,0)" xlink:href="#aF"/><use transform="matrix(0.05,0,0,0.05,59.45,0)" xlink:href="#aC"/><use transform="matrix(0.05,0,0,0.05,68.45,0)" xlink:href="#az"/><use transform="matrix(0.05,0,0,0.05,78.45,0)" xlink:href="#aB"/><use transform="matrix(0.05,0,0,0.05,84.4,0)" xlink:href="#bh"/><use transform="matrix(0.05,0,0,0.05,97.35000000000001,0)" xlink:href="#az"/><use transform="matrix(0.05,0,0,0.05,107.35000000000001,0)" xlink:href="#aE"/><use transform="matrix(0.05,0,0,0.05,111.30000000000001,0)" xlink:href="#bi"/><use transform="matrix(0.05,0,0,0.05,121.30000000000001,0)" xlink:href="#az"/><use transform="matrix(0.05,0,0,0.05,131.3,0)" xlink:href="#aB"/></g><path d="M232-93c-1 65-40 97-104 97C67 4 28-28 28-90v-158h33c8 89-33 224 67 224 102 0 64-133 71-224h33v155" id="bj"/><g id="q"><use transform="matrix(0.05,0,0,0.05,0,0)" xlink:href="#aT"/><use transform="matrix(0.05,0,0,0.05,5.95,0)" xlink:href="#bj"/><use transform="matrix(0.05,0,0,0.05,18.900000000000002,0)" xlink:href="#aH"/><use transform="matrix(0.05,0,0,0.05,23.900000000000002,0)" xlink:href="#aF"/><use transform="matrix(0.05,0,0,0.05,27.85,0)" xlink:href="#aE"/><use transform="matrix(0.05,0,0,0.05,31.8,0)" xlink:href="#aX"/></g><g id="r"><use transform="matrix(0.05,0,0,0.05,0,0)" xlink:href="#aB"/><use transform="matrix(0.05,0,0,0.05,5.95,0)" xlink:href="#ax"/><use transform="matrix(0.05,0,0,0.05,15.949999999999998,0)" xlink:href="#aK"/><use transform="matrix(0.05,0,0,0.05,25.950000000000003,0)" xlink:href="#aH"/><use transform="matrix(0.05,0,0,0.05,30.950000000000003,0)" xlink:href="#aF"/><use transform="matrix(0.05,0,0,0.05,34.9,0)" xlink:href="#aG"/><use transform="matrix(0.05,0,0,0.05,44.9,0)" xlink:href="#aS"/></g><g id="s"><use transform="matrix(0.05,0,0,0.05,0,0)" xlink:href="#aN"/><use transform="matrix(0.05,0,0,0.05,12,0)" xlink:href="#aO"/><use transform="matrix(0.05,0,0,0.05,26,0)" xlink:href="#aA"/><use transform="matrix(0.05,0,0,0.05,38,0)" xlink:href="#aP"/></g><path d="M80-196l47-18 7 23-49 13 32 44-20 13-27-46-27 45-21-12 33-44-49-13 8-23 47 19-2-53h23" id="bk"/><use transform="matrix(0.05,0,0,0.05,0,0)" xlink:href="#bk" id="t"/><g id="u"><use transform="matrix(0.05,0,0,0.05,0,0)" xlink:href="#aQ"/><use transform="matrix(0.05,0,0,0.05,5,0)" xlink:href="#aW"/><use transform="matrix(0.05,0,0,0.05,15,0)" xlink:href="#bi"/><use transform="matrix(0.05,0,0,0.05,25,0)" xlink:href="#aF"/></g><path d="M205 0l-28-72H64L36 0H1l101-248h38L239 0h-34zm-38-99l-47-123c-12 45-31 82-46 123h93" id="bl"/><path d="M33 0v-248h34V0H33" id="bm"/><g id="v"><use transform="matrix(0.05,0,0,0.05,0,0)" xlink:href="#bl"/><use transform="matrix(0.05,0,0,0.05,12,0)" xlink:href="#aN"/><use transform="matrix(0.05,0,0,0.05,24,0)" xlink:href="#bm"/></g><path d="M30 0v-248h187v28H63v79h144v27H63v87h162V0H30" id="bn"/><g id="w"><use transform="matrix(0.05,0,0,0.05,0,0)" xlink:href="#bc"/><use transform="matrix(0.05,0,0,0.05,14,0)" xlink:href="#bn"/><use transform="matrix(0.05,0,0,0.05,26,0)" xlink:href="#aP"/></g><use transform="matrix(0.05,0,0,0.05,0,0)" xlink:href="#aQ" id="x"/><path d="M106-169C34-169 62-67 57 0H25v-261h32l-1 103c12-21 28-36 61-36 89 0 53 116 60 194h-32v-121c2-32-8-49-39-48" id="bo"/><g id="y"><use transform="matrix(0.05,0,0,0.05,0,0)" xlink:href="#aF"/><use transform="matrix(0.05,0,0,0.05,3.95,0)" xlink:href="#aG"/><use transform="matrix(0.05,0,0,0.05,13.949999999999998,0)" xlink:href="#ay"/><use transform="matrix(0.05,0,0,0.05,23.95,0)" xlink:href="#az"/><use transform="matrix(0.05,0,0,0.05,33.95,0)" xlink:href="#ba"/><use transform="matrix(0.05,0,0,0.05,42.95,0)" xlink:href="#aZ"/><use transform="matrix(0.05,0,0,0.05,47.95,0)" xlink:href="#bo"/><use transform="matrix(0.05,0,0,0.05,57.95,0)" xlink:href="#aH"/><use transform="matrix(0.05,0,0,0.05,62.95,0)" xlink:href="#bb"/><use transform="matrix(0.05,0,0,0.05,77.9,0)" xlink:href="#aE"/></g><path d="M155-56V0h-30v-56H8v-25l114-167h33v167h35v25h-35zm-30-156c-27 46-58 90-88 131h88v-131" id="bp"/><path d="M101-251c68 0 85 55 85 127S166 4 100 4C33 4 14-52 14-124c0-73 17-127 87-127zm-1 229c47 0 54-49 54-102s-4-102-53-102c-51 0-55 48-55 102 0 53 5 102 54 102" id="bq"/><g id="z"><use transform="matrix(0.05,0,0,0.05,0,0)" xlink:href="#bp"/><use transform="matrix(0.05,0,0,0.05,10,0)" xlink:href="#bq"/><use transform="matrix(0.05,0,0,0.05,20,0)" xlink:href="#bp"/></g><path d="M179-190L93 31C79 59 56 82 12 73V49c39 6 53-20 64-50L1-190h34L92-34l54-156h33" id="br"/><g id="A"><use transform="matrix(0.05,0,0,0.05,0,0)" xlink:href="#bl"/><use transform="matrix(0.05,0,0,0.05,12,0)" xlink:href="#aG"/><use transform="matrix(0.05,0,0,0.05,22,0)" xlink:href="#br"/><use transform="matrix(0.05,0,0,0.05,31,0)" xlink:href="#aH"/><use transform="matrix(0.05,0,0,0.05,36,0)" xlink:href="#bo"/><use transform="matrix(0.05,0,0,0.05,46,0)" xlink:href="#aF"/><use transform="matrix(0.05,0,0,0.05,49.95,0)" xlink:href="#aG"/><use transform="matrix(0.05,0,0,0.05,59.95,0)" xlink:href="#aS"/></g><g id="B"><use transform="matrix(0.05,0,0,0.05,0,0)" xlink:href="#bn"/><use transform="matrix(0.05,0,0,0.05,12,0)" xlink:href="#aE"/><use transform="matrix(0.05,0,0,0.05,15.949999999999998,0)" xlink:href="#aL"/><use transform="matrix(0.05,0,0,0.05,24.95,0)" xlink:href="#az"/></g><g id="C"><use transform="matrix(0.05,0,0,0.05,0,0)" xlink:href="#aL"/><use transform="matrix(0.05,0,0,0.05,9,0)" xlink:href="#aK"/><use transform="matrix(0.05,0,0,0.05,19,0)" xlink:href="#aB"/><use transform="matrix(0.05,0,0,0.05,24.95,0)" xlink:href="#az"/><use transform="matrix(0.05,0,0,0.05,34.95,0)" xlink:href="#aY"/><use transform="matrix(0.05,0,0,0.05,39.95,0)" xlink:href="#aF"/><use transform="matrix(0.05,0,0,0.05,43.900000000000006,0)" xlink:href="#aB"/><use transform="matrix(0.05,0,0,0.05,49.85000000000001,0)" xlink:href="#az"/></g><g id="D"><use transform="matrix(0.05,0,0,0.05,0,0)" xlink:href="#aT"/><use transform="matrix(0.05,0,0,0.05,5.95,0)" xlink:href="#bi"/><use transform="matrix(0.05,0,0,0.05,15.949999999999998,0)" xlink:href="#aE"/><use transform="matrix(0.05,0,0,0.05,19.9,0)" xlink:href="#aK"/><use transform="matrix(0.05,0,0,0.05,29.899999999999995,0)" xlink:href="#aS"/><use transform="matrix(0.05,0,0,0.05,39.9,0)" xlink:href="#aF"/><use transform="matrix(0.05,0,0,0.05,43.85,0)" xlink:href="#aG"/><use transform="matrix(0.05,0,0,0.05,53.85,0)" xlink:href="#aX"/></g><g id="E"><use transform="matrix(0.05,0,0,0.05,0,0)" xlink:href="#aP"/><use transform="matrix(0.05,0,0,0.05,8.950000000000001,0)" xlink:href="#az"/><use transform="matrix(0.05,0,0,0.05,18.950000000000003,0)" xlink:href="#aL"/><use transform="matrix(0.05,0,0,0.05,27.950000000000003,0)" xlink:href="#aH"/></g><g id="F"><use transform="matrix(0.05,0,0,0.05,0,0)" xlink:href="#aI"/><use transform="matrix(0.05,0,0,0.05,12.950000000000001,0)" xlink:href="#az"/><use transform="matrix(0.05,0,0,0.05,22.950000000000003,0)" xlink:href="#aL"/><use transform="matrix(0.05,0,0,0.05,31.950000000000003,0)" xlink:href="#aK"/><use transform="matrix(0.05,0,0,0.05,41.95,0)" xlink:href="#aE"/><use transform="matrix(0.05,0,0,0.05,45.900000000000006,0)" xlink:href="#aH"/><use transform="matrix(0.05,0,0,0.05,50.900000000000006,0)" xlink:href="#aL"/></g><g id="G"><use transform="matrix(0.05,0,0,0.05,0,0)" xlink:href="#aT"/><use transform="matrix(0.05,0,0,0.05,5.95,0)" xlink:href="#be"/><use transform="matrix(0.05,0,0,0.05,22.55,0)" xlink:href="#aB"/><use transform="matrix(0.05,0,0,0.05,28.5,0)" xlink:href="#aF"/><use transform="matrix(0.05,0,0,0.05,32.45,0)" xlink:href="#aH"/><use transform="matrix(0.05,0,0,0.05,37.45,0)" xlink:href="#az"/></g><g id="H"><use transform="matrix(0.05,0,0,0.05,0,0)" xlink:href="#aV"/><use transform="matrix(0.05,0,0,0.05,12.950000000000001,0)" xlink:href="#bo"/><use transform="matrix(0.05,0,0,0.05,22.950000000000003,0)" xlink:href="#az"/><use transform="matrix(0.05,0,0,0.05,32.95,0)" xlink:href="#aG"/></g><g id="I"><use transform="matrix(0.05,0,0,0.05,0,0)" xlink:href="#ay"/><use transform="matrix(0.05,0,0,0.05,10,0)" xlink:href="#ax"/><use transform="matrix(0.05,0,0,0.05,20,0)" xlink:href="#aG"/><use transform="matrix(0.05,0,0,0.05,30,0)" xlink:href="#az"/><use transform="matrix(0.05,0,0,0.05,40,0)" xlink:href="#aX"/></g><path d="M16-82v-28h88v28H16" id="bs"/><g id="J"><use transform="matrix(0.05,0,0,0.05,0,0)" xlink:href="#aH"/><use transform="matrix(0.05,0,0,0.05,5,0)" xlink:href="#az"/><use transform="matrix(0.05,0,0,0.05,15,0)" xlink:href="#aL"/><use transform="matrix(0.05,0,0,0.05,24,0)" xlink:href="#aH"/><use transform="matrix(0.05,0,0,0.05,29,0)" xlink:href="#aG"/><use transform="matrix(0.05,0,0,0.05,39,0)" xlink:href="#aS"/><use transform="matrix(0.05,0,0,0.05,49,0)" xlink:href="#bs"/><use transform="matrix(0.05,0,0,0.05,54.95,0)" xlink:href="#aB"/><use transform="matrix(0.05,0,0,0.05,60.900000000000006,0)" xlink:href="#az"/><use transform="matrix(0.05,0,0,0.05,70.9,0)" xlink:href="#aL"/><use transform="matrix(0.05,0,0,0.05,79.9,0)" xlink:href="#aK"/><use transform="matrix(0.05,0,0,0.05,89.9,0)" xlink:href="#aE"/><use transform="matrix(0.05,0,0,0.05,93.85000000000001,0)" xlink:href="#aH"/><use transform="matrix(0.05,0,0,0.05,98.85000000000001,0)" xlink:href="#aL"/><use transform="matrix(0.05,0,0,0.05,107.85000000000001,0)" xlink:href="#aZ"/><use transform="matrix(0.05,0,0,0.05,112.85000000000001,0)" xlink:href="#ba"/><use transform="matrix(0.05,0,0,0.05,121.85000000000001,0)" xlink:href="#bb"/><use transform="matrix(0.05,0,0,0.05,136.8,0)" xlink:href="#aE"/></g><g id="K"><use transform="matrix(0.05,0,0,0.05,0,0)" xlink:href="#aT"/><use transform="matrix(0.05,0,0,0.05,5.95,0)" xlink:href="#aF"/><use transform="matrix(0.05,0,0,0.05,9.9,0)" xlink:href="#aG"/><use transform="matrix(0.05,0,0,0.05,19.9,0)" xlink:href="#aL"/><use transform="matrix(0.05,0,0,0.05,28.899999999999995,0)" xlink:href="#aF"/><use transform="matrix(0.05,0,0,0.05,32.85,0)" xlink:href="#ay"/><use transform="matrix(0.05,0,0,0.05,42.85,0)" xlink:href="#az"/></g><g id="L"><use transform="matrix(0.05,0,0,0.05,0,0)" xlink:href="#ax"/><use transform="matrix(0.05,0,0,0.05,10,0)" xlink:href="#aY"/></g><g id="M"><use transform="matrix(0.05,0,0,0.05,0,0)" xlink:href="#aL"/><use transform="matrix(0.05,0,0,0.05,9,0)" xlink:href="#aK"/><use transform="matrix(0.05,0,0,0.05,19,0)" xlink:href="#aB"/><use transform="matrix(0.05,0,0,0.05,24.95,0)" xlink:href="#az"/><use transform="matrix(0.05,0,0,0.05,34.95,0)" xlink:href="#aY"/><use transform="matrix(0.05,0,0,0.05,39.95,0)" xlink:href="#aF"/><use transform="matrix(0.05,0,0,0.05,43.900000000000006,0)" xlink:href="#aB"/><use transform="matrix(0.05,0,0,0.05,49.85000000000001,0)" xlink:href="#az"/></g><g id="N"><use transform="matrix(0.05,0,0,0.05,0,0)" xlink:href="#aY"/><use transform="matrix(0.05,0,0,0.05,5,0)" xlink:href="#ax"/><use transform="matrix(0.05,0,0,0.05,15,0)" xlink:href="#aE"/><use transform="matrix(0.05,0,0,0.05,18.95,0)" xlink:href="#ay"/><use transform="matrix(0.05,0,0,0.05,28.950000000000003,0)" xlink:href="#az"/><use transform="matrix(0.05,0,0,0.05,38.95,0)" xlink:href="#aB"/><use transform="matrix(0.05,0,0,0.05,44.900000000000006,0)" xlink:href="#aX"/></g><path d="M96-169c-40 0-48 33-48 73s9 75 48 75c24 0 41-14 43-38l32 2c-6 37-31 61-74 61-59 0-76-41-82-99-10-93 101-131 147-64 4 7 5 14 7 22l-32 3c-4-21-16-35-41-35" id="bt"/><g id="O"><use transform="matrix(0.05,0,0,0.05,0,0)" xlink:href="#bn"/><use transform="matrix(0.05,0,0,0.05,12,0)" xlink:href="#ba"/><use transform="matrix(0.05,0,0,0.05,21,0)" xlink:href="#az"/><use transform="matrix(0.05,0,0,0.05,31,0)" xlink:href="#bt"/><use transform="matrix(0.05,0,0,0.05,40,0)" xlink:href="#aK"/><use transform="matrix(0.05,0,0,0.05,50,0)" xlink:href="#aH"/><use transform="matrix(0.05,0,0,0.05,55,0)" xlink:href="#az"/></g><g id="P"><use transform="matrix(0.05,0,0,0.05,0,0)" xlink:href="#aI"/><use transform="matrix(0.05,0,0,0.05,12.950000000000001,0)" xlink:href="#az"/><use transform="matrix(0.05,0,0,0.05,22.950000000000003,0)" xlink:href="#bi"/><use transform="matrix(0.05,0,0,0.05,32.95,0)" xlink:href="#aE"/><use transform="matrix(0.05,0,0,0.05,36.900000000000006,0)" xlink:href="#br"/></g><g id="Q"><use transform="matrix(0.05,0,0,0.05,0,0)" xlink:href="#be"/><use transform="matrix(0.05,0,0,0.05,16.95,0)" xlink:href="#bo"/><use transform="matrix(0.05,0,0,0.05,26.950000000000003,0)" xlink:href="#az"/><use transform="matrix(0.05,0,0,0.05,36.95,0)" xlink:href="#aG"/></g><g id="R"><use transform="matrix(0.05,0,0,0.05,0,0)" xlink:href="#bg"/><use transform="matrix(0.05,0,0,0.05,12.950000000000001,0)" xlink:href="#ax"/><use transform="matrix(0.05,0,0,0.05,22.950000000000003,0)" xlink:href="#aG"/><use transform="matrix(0.05,0,0,0.05,32.95,0)" xlink:href="#az"/></g><g id="S"><use transform="matrix(0.05,0,0,0.05,0,0)" xlink:href="#aI"/><use transform="matrix(0.05,0,0,0.05,12.950000000000001,0)" xlink:href="#az"/><use transform="matrix(0.05,0,0,0.05,22.950000000000003,0)" xlink:href="#aW"/><use transform="matrix(0.05,0,0,0.05,32.95,0)" xlink:href="#ay"/></g><g id="T"><use transform="matrix(0.05,0,0,0.05,0,0)" xlink:href="#aO"/><use transform="matrix(0.05,0,0,0.05,14,0)" xlink:href="#aG"/><use transform="matrix(0.05,0,0,0.05,24,0)" xlink:href="#bt"/><use transform="matrix(0.05,0,0,0.05,33,0)" xlink:href="#az"/></g><g id="U"><use transform="matrix(0.05,0,0,0.05,0,0)" xlink:href="#aP"/><use transform="matrix(0.05,0,0,0.05,8.950000000000001,0)" xlink:href="#az"/><use transform="matrix(0.05,0,0,0.05,18.950000000000003,0)" xlink:href="#aL"/><use transform="matrix(0.05,0,0,0.05,27.950000000000003,0)" xlink:href="#aH"/><use transform="matrix(0.05,0,0,0.05,32.95,0)" xlink:href="#aL"/></g><g id="V"><use transform="matrix(0.05,0,0,0.05,0,0)" xlink:href="#bg"/><use transform="matrix(0.05,0,0,0.05,12.950000000000001,0)" xlink:href="#ax"/><use transform="matrix(0.05,0,0,0.05,22.950000000000003,0)" xlink:href="#aG"/><use transform="matrix(0.05,0,0,0.05,32.95,0)" xlink:href="#az"/></g><g id="W"><use transform="matrix(0.05,0,0,0.05,0,0)" xlink:href="#bi"/><use transform="matrix(0.05,0,0,0.05,10,0)" xlink:href="#aW"/><use transform="matrix(0.05,0,0,0.05,20,0)" xlink:href="#aB"/><use transform="matrix(0.05,0,0,0.05,25.950000000000003,0)" xlink:href="#aL"/><use transform="matrix(0.05,0,0,0.05,34.95,0)" xlink:href="#az"/></g><g id="X"><use transform="matrix(0.05,0,0,0.05,0,0)" xlink:href="#aF"/><use transform="matrix(0.05,0,0,0.05,3.95,0)" xlink:href="#aG"/><use transform="matrix(0.05,0,0,0.05,13.949999999999998,0)" xlink:href="#aH"/><use transform="matrix(0.05,0,0,0.05,18.95,0)" xlink:href="#ax"/></g><g id="Y"><use transform="matrix(0.05,0,0,0.05,0,0)" xlink:href="#aU"/><use transform="matrix(0.05,0,0,0.05,14.950000000000001,0)" xlink:href="#ax"/><use transform="matrix(0.05,0,0,0.05,24.950000000000003,0)" xlink:href="#ay"/><use transform="matrix(0.05,0,0,0.05,34.95,0)" xlink:href="#az"/><use transform="matrix(0.05,0,0,0.05,44.95,0)" xlink:href="#aE"/><use transform="matrix(0.05,0,0,0.05,48.900000000000006,0)" xlink:href="#aL"/></g><g id="Z"><use transform="matrix(0.05,0,0,0.05,0,0)" xlink:href="#aT"/><use transform="matrix(0.05,0,0,0.05,5.95,0)" xlink:href="#aD"/><use transform="matrix(0.05,0,0,0.05,18.900000000000002,0)" xlink:href="#ax"/><use transform="matrix(0.05,0,0,0.05,28.900000000000002,0)" xlink:href="#aG"/><use transform="matrix(0.05,0,0,0.05,38.900000000000006,0)" xlink:href="#aC"/><use transform="matrix(0.05,0,0,0.05,47.900000000000006,0)" xlink:href="#az"/><use transform="matrix(0.05,0,0,0.05,57.900000000000006,0)" xlink:href="#aB"/><use transform="matrix(0.05,0,0,0.05,63.85,0)" xlink:href="#aH"/></g><g id="aa"><use transform="matrix(0.05,0,0,0.05,0,0)" xlink:href="#aH"/><use transform="matrix(0.05,0,0,0.05,5,0)" xlink:href="#ax"/></g><path d="M153-248C145-148 188 4 80 4 36 3 13-21 6-62l32-5c4 25 16 42 43 43 27 0 39-20 39-49v-147H72v-28h81" id="bu"/><g id="ab"><use transform="matrix(0.05,0,0,0.05,0,0)" xlink:href="#bu"/><use transform="matrix(0.05,0,0,0.05,9,0)" xlink:href="#aA"/><use transform="matrix(0.05,0,0,0.05,21,0)" xlink:href="#aO"/><use transform="matrix(0.05,0,0,0.05,35,0)" xlink:href="#aw"/><use transform="matrix(0.05,0,0,0.05,47.95,0)" xlink:href="#aX"/></g><g id="ac"><use transform="matrix(0.05,0,0,0.05,0,0)" xlink:href="#aI"/><use transform="matrix(0.05,0,0,0.05,12.950000000000001,0)" xlink:href="#az"/><use transform="matrix(0.05,0,0,0.05,22.950000000000003,0)" xlink:href="#bi"/><use transform="matrix(0.05,0,0,0.05,32.95,0)" xlink:href="#aE"/><use transform="matrix(0.05,0,0,0.05,36.900000000000006,0)" xlink:href="#br"/></g><g id="ad"><use transform="matrix(0.05,0,0,0.05,0,0)" xlink:href="#aV"/><use transform="matrix(0.05,0,0,0.05,12.950000000000001,0)" xlink:href="#aF"/><use transform="matrix(0.05,0,0,0.05,16.900000000000002,0)" xlink:href="#aH"/><use transform="matrix(0.05,0,0,0.05,21.900000000000002,0)" xlink:href="#bo"/></g><g id="ae"><use transform="matrix(0.05,0,0,0.05,0,0)" xlink:href="#bu"/><use transform="matrix(0.05,0,0,0.05,9,0)" xlink:href="#aA"/><use transform="matrix(0.05,0,0,0.05,21,0)" xlink:href="#aO"/><use transform="matrix(0.05,0,0,0.05,35,0)" xlink:href="#aw"/></g><g id="af"><use transform="matrix(0.05,0,0,0.05,0,0)" xlink:href="#aI"/><use transform="matrix(0.05,0,0,0.05,12.950000000000001,0)" xlink:href="#az"/><use transform="matrix(0.05,0,0,0.05,22.950000000000003,0)" xlink:href="#aL"/><use transform="matrix(0.05,0,0,0.05,31.950000000000003,0)" xlink:href="#aK"/><use transform="matrix(0.05,0,0,0.05,41.95,0)" xlink:href="#aE"/><use transform="matrix(0.05,0,0,0.05,45.900000000000006,0)" xlink:href="#aH"/><use transform="matrix(0.05,0,0,0.05,50.900000000000006,0)" xlink:href="#aL"/></g><g id="ag"><use transform="matrix(0.08641975308641976,0,0,0.08641975308641976,0,0)" xlink:href="#aR"/><use transform="matrix(0.08641975308641976,0,0,0.08641975308641976,18.925925925925927,0)" xlink:href="#aE"/><use transform="matrix(0.08641975308641976,0,0,0.08641975308641976,25.75308641975309,0)" xlink:href="#ax"/><use transform="matrix(0.08641975308641976,0,0,0.08641975308641976,43.03703703703704,0)" xlink:href="#aV"/></g><g id="ah"><use transform="matrix(0.08641975308641976,0,0,0.08641975308641976,0,0)" xlink:href="#ax"/><use transform="matrix(0.08641975308641976,0,0,0.08641975308641976,17.283950617283953,0)" xlink:href="#aY"/></g><g id="ai"><use transform="matrix(0.08641975308641976,0,0,0.08641975308641976,0,0)" xlink:href="#aD"/><use transform="matrix(0.08641975308641976,0,0,0.08641975308641976,22.38271604938272,0)" xlink:href="#ax"/><use transform="matrix(0.08641975308641976,0,0,0.08641975308641976,39.66666666666667,0)" xlink:href="#aG"/><use transform="matrix(0.08641975308641976,0,0,0.08641975308641976,56.95061728395062,0)" xlink:href="#aH"/><use transform="matrix(0.08641975308641976,0,0,0.08641975308641976,65.5925925925926,0)" xlink:href="#aB"/><use transform="matrix(0.08641975308641976,0,0,0.08641975308641976,75.87654320987654,0)" xlink:href="#ax"/><use transform="matrix(0.08641975308641976,0,0,0.08641975308641976,93.16049382716048,0)" xlink:href="#aE"/></g><g id="aj"><use transform="matrix(0.08641975308641976,0,0,0.08641975308641976,0,0)" xlink:href="#aY"/><use transform="matrix(0.08641975308641976,0,0,0.08641975308641976,8.641975308641976,0)" xlink:href="#ax"/><use transform="matrix(0.08641975308641976,0,0,0.08641975308641976,25.925925925925927,0)" xlink:href="#aB"/></g><g id="ak"><use transform="matrix(0.08641975308641976,0,0,0.08641975308641976,0,0)" xlink:href="#aB"/><use transform="matrix(0.08641975308641976,0,0,0.08641975308641976,10.283950617283951,0)" xlink:href="#aK"/><use transform="matrix(0.08641975308641976,0,0,0.08641975308641976,27.567901234567906,0)" xlink:href="#aG"/><use transform="matrix(0.08641975308641976,0,0,0.08641975308641976,44.85185185185187,0)" xlink:href="#aG"/><use transform="matrix(0.08641975308641976,0,0,0.08641975308641976,62.13580246913581,0)" xlink:href="#aF"/><use transform="matrix(0.08641975308641976,0,0,0.08641975308641976,68.96296296296298,0)" xlink:href="#aG"/><use transform="matrix(0.08641975308641976,0,0,0.08641975308641976,86.24691358024693,0)" xlink:href="#aS"/></g><g id="al"><use transform="matrix(0.08641975308641976,0,0,0.08641975308641976,0,0)" xlink:href="#aR"/><use transform="matrix(0.08641975308641976,0,0,0.08641975308641976,18.925925925925927,0)" xlink:href="#ax"/><use transform="matrix(0.08641975308641976,0,0,0.08641975308641976,36.20987654320988,0)" xlink:href="#aB"/><use transform="matrix(0.08641975308641976,0,0,0.08641975308641976,46.49382716049383,0)" xlink:href="#az"/><use transform="matrix(0.08641975308641976,0,0,0.08641975308641976,63.777777777777786,0)" xlink:href="#aF"/><use transform="matrix(0.08641975308641976,0,0,0.08641975308641976,70.60493827160495,0)" xlink:href="#aS"/><use transform="matrix(0.08641975308641976,0,0,0.08641975308641976,87.8888888888889,0)" xlink:href="#aG"/></g><g id="am"><use transform="matrix(0.08641975308641976,0,0,0.08641975308641976,0,0)" xlink:href="#aP"/><use transform="matrix(0.08641975308641976,0,0,0.08641975308641976,15.469135802469134,0)" xlink:href="#az"/><use transform="matrix(0.08641975308641976,0,0,0.08641975308641976,32.75308641975309,0)" xlink:href="#aL"/><use transform="matrix(0.08641975308641976,0,0,0.08641975308641976,48.308641975308646,0)" xlink:href="#aH"/></g><g id="ao"><use transform="matrix(0.08641975308641976,0,0,0.08641975308641976,0,0)" xlink:href="#aA"/><use transform="matrix(0.08641975308641976,0,0,0.08641975308641976,20.740740740740744,0)" xlink:href="#aH"/><use transform="matrix(0.08641975308641976,0,0,0.08641975308641976,29.382716049382726,0)" xlink:href="#aW"/><use transform="matrix(0.08641975308641976,0,0,0.08641975308641976,46.66666666666667,0)" xlink:href="#aB"/><use transform="matrix(0.08641975308641976,0,0,0.08641975308641976,56.95061728395062,0)" xlink:href="#aH"/></g><g id="ap"><use transform="matrix(0.08641975308641976,0,0,0.08641975308641976,0,0)" xlink:href="#aY"/><use transform="matrix(0.08641975308641976,0,0,0.08641975308641976,8.641975308641976,0)" xlink:href="#aB"/><use transform="matrix(0.08641975308641976,0,0,0.08641975308641976,18.925925925925927,0)" xlink:href="#ax"/><use transform="matrix(0.08641975308641976,0,0,0.08641975308641976,36.20987654320988,0)" xlink:href="#bb"/></g><g id="aq"><use transform="matrix(0.08641975308641976,0,0,0.08641975308641976,0,0)" xlink:href="#aD"/><use transform="matrix(0.08641975308641976,0,0,0.08641975308641976,22.38271604938272,0)" xlink:href="#aE"/><use transform="matrix(0.08641975308641976,0,0,0.08641975308641976,29.20987654320988,0)" xlink:href="#aF"/><use transform="matrix(0.08641975308641976,0,0,0.08641975308641976,36.03703703703704,0)" xlink:href="#az"/><use transform="matrix(0.08641975308641976,0,0,0.08641975308641976,53.32098765432098,0)" xlink:href="#aG"/><use transform="matrix(0.08641975308641976,0,0,0.08641975308641976,70.60493827160494,0)" xlink:href="#aH"/></g><g id="ar"><use transform="matrix(0.05,0,0,0.05,0,0)" xlink:href="#aI"/><use transform="matrix(0.05,0,0,0.05,12.950000000000001,0)" xlink:href="#aK"/><use transform="matrix(0.05,0,0,0.05,22.950000000000003,0)" xlink:href="#aG"/><use transform="matrix(0.05,0,0,0.05,32.95,0)" xlink:href="#aD"/><use transform="matrix(0.05,0,0,0.05,45.900000000000006,0)" xlink:href="#ax"/><use transform="matrix(0.05,0,0,0.05,55.900000000000006,0)" xlink:href="#bb"/><use transform="matrix(0.05,0,0,0.05,70.85000000000001,0)" xlink:href="#bb"/><use transform="matrix(0.05,0,0,0.05,85.80000000000001,0)" xlink:href="#aW"/><use transform="matrix(0.05,0,0,0.05,95.80000000000001,0)" xlink:href="#aG"/><use transform="matrix(0.05,0,0,0.05,105.80000000000001,0)" xlink:href="#ay"/></g><g id="as"><use transform="matrix(0.05,0,0,0.05,0,0)" xlink:href="#aV"/><use transform="matrix(0.05,0,0,0.05,12.950000000000001,0)" xlink:href="#aF"/><use transform="matrix(0.05,0,0,0.05,16.900000000000002,0)" xlink:href="#aH"/><use transform="matrix(0.05,0,0,0.05,21.900000000000002,0)" xlink:href="#bo"/></g><g id="at"><use transform="matrix(0.05,0,0,0.05,0,0)" xlink:href="#bu"/><use transform="matrix(0.05,0,0,0.05,9,0)" xlink:href="#aA"/><use transform="matrix(0.05,0,0,0.05,21,0)" xlink:href="#aO"/><use transform="matrix(0.05,0,0,0.05,35,0)" xlink:href="#aw"/></g><g id="au"><use transform="matrix(0.05,0,0,0.05,0,0)" xlink:href="#aI"/><use transform="matrix(0.05,0,0,0.05,12.950000000000001,0)" xlink:href="#az"/><use transform="matrix(0.05,0,0,0.05,22.950000000000003,0)" xlink:href="#aL"/><use transform="matrix(0.05,0,0,0.05,31.950000000000003,0)" xlink:href="#bi"/><use transform="matrix(0.05,0,0,0.05,41.95,0)" xlink:href="#ax"/><use transform="matrix(0.05,0,0,0.05,51.95,0)" xlink:href="#aG"/><use transform="matrix(0.05,0,0,0.05,61.95,0)" xlink:href="#aL"/><use transform="matrix(0.05,0,0,0.05,70.95,0)" xlink:href="#az"/></g><path d="M24-231v-30h32v30H24zM-9 49c24 4 33-6 33-30v-209h32V24c2 40-23 58-65 49V49" id="bv"/><g id="av"><use transform="matrix(0.05,0,0,0.05,0,0)" xlink:href="#aO"/><use transform="matrix(0.05,0,0,0.05,14,0)" xlink:href="#bf"/><use transform="matrix(0.05,0,0,0.05,24,0)" xlink:href="#bv"/><use transform="matrix(0.05,0,0,0.05,27.950000000000003,0)" xlink:href="#az"/><use transform="matrix(0.05,0,0,0.05,37.95,0)" xlink:href="#bt"/><use transform="matrix(0.05,0,0,0.05,46.95,0)" xlink:href="#aH"/></g></defs></g></svg>